<svg xmlns="http://www.w3.org/2000/svg" xmlns:xlink="http://www.w3.org/1999/xlink" version="1.1" x="0px" y="0px" viewBox="0 0 100 125" style="enable-background:new 0 0 100 100;" xml:space="preserve"><style type="text/css">
	.st0{fill-rule:evenodd;clip-rule:evenodd;}
</style><path class="st0" d="M53.801,53.801l0.413-0.463l0.355-0.508l0.295-0.546l0.229-0.576l0.16-0.599l0.09-0.614l0.018-0.62  l-0.054-0.617l-0.125-0.608l-0.195-0.588L54.725,47.5L54.4,46.971l-0.385-0.486l-0.438-0.439l-0.486-0.385l-0.528-0.325L52,45.074  l-0.589-0.195l-0.607-0.125L50.186,44.7l-0.62,0.018l-0.614,0.089l-0.599,0.161l-0.576,0.229l-0.546,0.295l-0.508,0.355L46.26,46.26  l-0.413,0.463l-0.355,0.508l-0.295,0.546l-0.229,0.576l-0.161,0.599l-0.089,0.614l-0.018,0.62l0.054,0.617l0.125,0.607L45.074,52  l0.262,0.562l0.325,0.528l0.385,0.486l0.439,0.438l0.486,0.385l0.528,0.325l0.562,0.262l0.588,0.195l0.608,0.125l0.617,0.054  l0.62-0.018l0.614-0.09l0.599-0.16l0.576-0.229l0.546-0.295l0.508-0.355L53.801,53.801 M45.788,45.788l0.502-0.448l0.548-0.389  l0.589-0.326l0.622-0.257l0.646-0.186l0.664-0.113l0.672-0.037l0.672,0.037l0.664,0.113l0.646,0.186l0.622,0.257l0.588,0.326  l0.549,0.389l0.502,0.448l0.448,0.502l0.389,0.548l0.325,0.589l0.258,0.622l0.185,0.646l0.113,0.664l0.038,0.672l-0.038,0.672  l-0.113,0.664l-0.185,0.646l-0.258,0.622l-0.325,0.588l-0.389,0.549l-0.448,0.502l-0.502,0.448l-0.549,0.389l-0.588,0.325  l-0.622,0.258l-0.646,0.185l-0.664,0.113L50.03,56.03l-0.672-0.038l-0.664-0.113l-0.646-0.185l-0.622-0.258l-0.589-0.325  l-0.548-0.389l-0.502-0.448l-0.448-0.502l-0.389-0.549l-0.326-0.588l-0.257-0.622l-0.186-0.646l-0.113-0.664L44.03,50.03  l0.037-0.672l0.113-0.664l0.186-0.646l0.257-0.622l0.326-0.589l0.389-0.548L45.788,45.788"/><polyline class="st0" points="56.866,43.195 56.243,42.624 55.572,42.11 54.859,41.656 54.109,41.267 53.328,40.944 52.522,40.69   51.697,40.509 51.697,26.422 52.992,26.549 54.278,26.748 55.552,27.017 56.808,27.355 58.045,27.762 59.257,28.236 60.44,28.776   61.593,29.38 62.71,30.047 63.789,30.774 64.828,31.56 65.82,32.401 66.766,33.296 67.659,34.24 68.501,35.233 69.287,36.271   70.014,37.35 70.68,38.468 71.285,39.62 71.825,40.804 72.299,42.016 72.706,43.252 73.044,44.51 73.313,45.782 73.511,47.069   73.638,48.364 59.552,48.364 59.37,47.539 59.117,46.732 58.794,45.951 58.405,45.201 57.951,44.489 57.437,43.818 56.866,43.195   "/><polyline class="st0" points="48.364,59.552 48.364,73.639 47.068,73.511 45.783,73.312 44.509,73.044 43.253,72.706 42.016,72.299   40.805,71.825 39.62,71.285 38.468,70.68 37.35,70.013 36.271,69.287 35.234,68.501 34.241,67.66 33.296,66.765 32.401,65.82   31.56,64.827 30.775,63.79 30.047,62.71 29.38,61.593 28.776,60.44 28.236,59.256 27.762,58.044 27.355,56.809 27.016,55.551   26.748,54.279 26.55,52.992 26.423,51.697 40.508,51.697 40.69,52.522 40.944,53.329 41.266,54.11 41.656,54.86 42.11,55.572   42.625,56.242 43.195,56.866 43.818,57.437 44.488,57.95 45.202,58.405 45.951,58.794 46.732,59.117 47.538,59.37 48.364,59.552 "/><path class="st0" d="M67.472,67.472l0.935-0.987l0.878-1.037l0.82-1.085l0.759-1.127l0.696-1.168l0.63-1.204l0.564-1.237  l0.494-1.266l0.424-1.292l0.352-1.313l0.279-1.331l0.205-1.344l0.131-1.353l0.056-1.358l-0.019-1.36l-0.094-1.355l-0.168-1.349  l-0.242-1.337l-0.315-1.323l-0.388-1.303l-0.459-1.279l-0.529-1.253l-0.596-1.221l-0.664-1.186l-0.728-1.148l-0.79-1.106  l-0.849-1.061l-0.907-1.013l-0.961-0.962l-1.013-0.906l-1.061-0.85l-1.106-0.79l-1.148-0.727l-1.186-0.664L60.25,27.58l-1.253-0.528  l-1.279-0.459l-1.304-0.388l-1.322-0.315l-1.337-0.242l-1.349-0.168l-1.356-0.094l-1.359-0.019l-1.358,0.056l-1.353,0.131  l-1.344,0.205l-1.331,0.279l-1.313,0.351l-1.292,0.424l-1.266,0.495l-1.237,0.563l-1.205,0.631l-1.167,0.695l-1.128,0.759  l-1.084,0.821l-1.037,0.878l-0.987,0.935l-0.935,0.987l-0.878,1.037l-0.821,1.084l-0.759,1.128l-0.695,1.167l-0.631,1.205  l-0.563,1.237l-0.495,1.266l-0.424,1.292l-0.351,1.313l-0.279,1.331l-0.205,1.344l-0.131,1.353l-0.056,1.358l0.019,1.359  l0.094,1.356l0.168,1.349l0.242,1.337l0.315,1.322l0.388,1.304l0.459,1.279l0.528,1.253l0.597,1.221l0.664,1.186l0.727,1.148  l0.79,1.106l0.85,1.061l0.906,1.013l0.962,0.961l1.013,0.907l1.061,0.849l1.106,0.79l1.148,0.728l1.186,0.664l1.221,0.596  l1.253,0.529l1.279,0.459l1.303,0.388l1.323,0.315l1.337,0.242l1.349,0.168l1.355,0.094l1.36,0.019l1.358-0.056l1.353-0.131  l1.344-0.205l1.331-0.279l1.313-0.352l1.292-0.424l1.266-0.494l1.237-0.564l1.204-0.63l1.168-0.696l1.127-0.759l1.085-0.82  l1.037-0.878L67.472,67.472 M31.174,31.174l1.03-0.977l1.081-0.92l1.128-0.862l1.173-0.801l1.214-0.736l1.251-0.672l1.285-0.604  l1.315-0.535l1.342-0.464l1.365-0.392l1.384-0.319l1.398-0.245l1.409-0.169l1.417-0.095l1.419-0.019l1.419,0.056l1.414,0.133  l1.405,0.207l1.392,0.281l1.374,0.355l1.355,0.428l1.329,0.499l1.3,0.57l1.268,0.637l1.234,0.705l1.193,0.769l1.151,0.832  l1.105,0.891l1.055,0.949l1.004,1.005l0.949,1.055l0.892,1.105l0.832,1.15l0.769,1.194l0.704,1.233l0.638,1.268l0.569,1.301  l0.5,1.329l0.427,1.354l0.355,1.375l0.282,1.392l0.207,1.405l0.132,1.414l0.057,1.418l-0.019,1.42l-0.095,1.416l-0.17,1.41  l-0.245,1.398l-0.318,1.384l-0.392,1.365l-0.464,1.342l-0.535,1.315l-0.604,1.285l-0.672,1.252l-0.737,1.213l-0.8,1.173  l-0.862,1.128l-0.921,1.081l-0.976,1.031l-1.031,0.976l-1.081,0.921l-1.128,0.862l-1.173,0.8l-1.213,0.737l-1.252,0.672  l-1.285,0.604l-1.315,0.535l-1.342,0.464l-1.365,0.392l-1.384,0.318l-1.398,0.245l-1.41,0.17l-1.416,0.095l-1.42,0.019l-1.418-0.057  l-1.414-0.132l-1.405-0.207l-1.392-0.282l-1.375-0.355l-1.354-0.427l-1.329-0.5l-1.301-0.569l-1.268-0.638l-1.233-0.704  l-1.194-0.769l-1.15-0.832l-1.105-0.892l-1.055-0.949l-1.005-1.004l-0.949-1.055l-0.891-1.105l-0.832-1.151l-0.769-1.193  l-0.705-1.234l-0.637-1.268l-0.57-1.3l-0.499-1.329l-0.428-1.355l-0.355-1.374l-0.281-1.392l-0.207-1.405l-0.133-1.414l-0.056-1.419  l0.019-1.419l0.095-1.417l0.169-1.409l0.245-1.398l0.319-1.384l0.392-1.365l0.464-1.342l0.535-1.315l0.604-1.285l0.672-1.251  l0.736-1.214l0.801-1.173l0.862-1.128l0.92-1.081L31.174,31.174"/><polyline class="st0" points="55.662,44.832 55.493,44.954 55.295,45.019 55.086,45.019 54.887,44.954 54.719,44.832 54.596,44.662   54.532,44.464 54.532,44.256 54.596,44.058 54.719,43.889 54.887,43.766 55.086,43.702 55.295,43.702 55.493,43.766 55.662,43.889   55.785,44.058 55.849,44.256 55.849,44.464 55.785,44.662 55.662,44.832 "/><polyline class="st0" points="50.502,42.835 50.333,42.958 50.135,43.022 49.926,43.022 49.728,42.958 49.559,42.835 49.436,42.666   49.372,42.468 49.372,42.26 49.436,42.061 49.559,41.892 49.728,41.77 49.926,41.705 50.135,41.705 50.333,41.77 50.502,41.892   50.625,42.061 50.689,42.26 50.689,42.468 50.625,42.666 50.502,42.835 "/><polyline class="st0" points="44.832,45.342 44.662,45.464 44.464,45.529 44.256,45.529 44.058,45.464 43.889,45.342 43.766,45.173   43.702,44.974 43.702,44.766 43.766,44.567 43.889,44.399 44.058,44.276 44.256,44.212 44.464,44.212 44.662,44.276 44.832,44.399   44.954,44.567 45.019,44.766 45.019,44.974 44.954,45.173 44.832,45.342 "/><polyline class="st0" points="42.835,50.502 42.666,50.625 42.468,50.689 42.26,50.689 42.061,50.625 41.892,50.502 41.77,50.333   41.705,50.135 41.705,49.926 41.77,49.728 41.892,49.559 42.061,49.436 42.26,49.372 42.468,49.372 42.666,49.436 42.835,49.559   42.958,49.728 43.022,49.926 43.022,50.135 42.958,50.333 42.835,50.502 "/><polyline class="st0" points="58.168,50.502 57.999,50.625 57.801,50.689 57.593,50.689 57.395,50.625 57.226,50.502 57.103,50.333   57.038,50.135 57.038,49.926 57.103,49.728 57.226,49.559 57.395,49.436 57.593,49.372 57.801,49.372 57.999,49.436 58.168,49.559   58.291,49.728 58.356,49.926 58.356,50.135 58.291,50.333 58.168,50.502 "/><polyline class="st0" points="56.172,55.662 56.003,55.785 55.805,55.849 55.597,55.849 55.398,55.785 55.229,55.662 55.107,55.493   55.042,55.295 55.042,55.086 55.107,54.887 55.229,54.719 55.398,54.596 55.597,54.532 55.805,54.532 56.003,54.596 56.172,54.719   56.295,54.887 56.359,55.086 56.359,55.295 56.295,55.493 56.172,55.662 "/><polyline class="st0" points="50.502,58.168 50.333,58.291 50.135,58.356 49.926,58.356 49.728,58.291 49.559,58.168 49.436,57.999   49.372,57.801 49.372,57.593 49.436,57.395 49.559,57.226 49.728,57.103 49.926,57.038 50.135,57.038 50.333,57.103 50.502,57.226   50.625,57.395 50.689,57.593 50.689,57.801 50.625,57.999 50.502,58.168 "/><polyline class="st0" points="45.342,56.172 45.173,56.295 44.974,56.359 44.766,56.359 44.567,56.295 44.399,56.172 44.276,56.003   44.212,55.805 44.212,55.597 44.276,55.398 44.399,55.229 44.567,55.107 44.766,55.042 44.974,55.042 45.173,55.107 45.342,55.229   45.464,55.398 45.529,55.597 45.529,55.805 45.464,56.003 45.342,56.172 "/><path class="st0" d="M52.697,72.54l1.301-0.193l1.288-0.268l1.27-0.342l1.248-0.415l1.223-0.486l1.191-0.557l1.157-0.625l1.12-0.692  l1.077-0.755l1.031-0.816l0.983-0.875l0.93-0.93l0.875-0.983l0.816-1.032l0.755-1.077l0.691-1.119l0.625-1.157l0.557-1.192  l0.487-1.222l0.415-1.248l0.342-1.27l0.268-1.288l0.193-1.301H60.358l-0.253,0.836l-0.321,0.813l-0.385,0.785L58.95,55.88  l-0.509,0.711l-0.565,0.666l-0.617,0.618l-0.667,0.565l-0.71,0.509l-0.75,0.448l-0.784,0.386l-0.814,0.321l-0.836,0.253V72.54   M51.697,73.638V59.552l0.825-0.182l0.806-0.253l0.781-0.323l0.749-0.39l0.714-0.454l0.67-0.515l0.624-0.571l0.57-0.623l0.515-0.671  l0.454-0.713l0.39-0.75l0.323-0.781l0.254-0.806l0.182-0.825h14.085l-0.127,1.295l-0.198,1.286l-0.268,1.274l-0.339,1.256  l-0.406,1.236l-0.475,1.212l-0.54,1.184l-0.604,1.153l-0.667,1.117l-0.727,1.08l-0.785,1.037L67.66,65.82l-0.895,0.945L65.82,67.66  l-0.993,0.841l-1.037,0.785l-1.079,0.727l-1.118,0.666l-1.152,0.605l-1.185,0.54l-1.212,0.475l-1.236,0.406l-1.256,0.338  l-1.274,0.269l-1.285,0.198L51.697,73.638"/><path class="st0" d="M27.521,47.363h12.182l0.253-0.836l0.321-0.813l0.385-0.785l0.449-0.749l0.509-0.711l0.565-0.666l0.617-0.618  l0.667-0.565l0.71-0.509l0.75-0.448l0.784-0.386l0.814-0.321l0.836-0.253V27.521l-1.301,0.193l-1.288,0.268l-1.27,0.342  l-1.248,0.415l-1.223,0.486l-1.191,0.557l-1.158,0.625l-1.119,0.691l-1.077,0.755l-1.031,0.816l-0.983,0.875l-0.93,0.93  l-0.875,0.983l-0.816,1.032l-0.755,1.077l-0.691,1.119l-0.625,1.157l-0.557,1.192l-0.487,1.222l-0.415,1.248l-0.343,1.27  l-0.267,1.288L27.521,47.363 M48.364,26.422v14.086l-0.825,0.182l-0.806,0.253l-0.781,0.323l-0.749,0.39l-0.714,0.454l-0.67,0.515  l-0.624,0.571l-0.57,0.623l-0.515,0.671l-0.454,0.713l-0.39,0.75l-0.323,0.781l-0.254,0.806l-0.182,0.825H26.423l0.127-1.295  l0.198-1.286l0.268-1.274l0.338-1.256l0.407-1.236l0.474-1.212l0.541-1.184l0.604-1.153l0.667-1.117l0.727-1.079l0.785-1.038  l0.841-0.993l0.895-0.945l0.945-0.895l0.993-0.841l1.037-0.785l1.079-0.727l1.118-0.666l1.152-0.605l1.185-0.54l1.212-0.475  l1.236-0.406l1.256-0.338l1.274-0.269l1.285-0.198L48.364,26.422"/><polyline class="st0" points="50.502,37.583 50.333,37.706 50.135,37.77 49.926,37.77 49.728,37.706 49.559,37.583 49.436,37.414   49.372,37.216 49.372,37.007 49.436,36.809 49.559,36.64 49.728,36.517 49.926,36.453 50.135,36.453 50.333,36.517 50.502,36.64   50.625,36.809 50.689,37.007 50.689,37.216 50.625,37.414 50.502,37.583 "/><polyline class="st0" points="50.502,30.22 50.333,30.343 50.135,30.407 49.926,30.407 49.728,30.343 49.559,30.22 49.436,30.051   49.372,29.853 49.372,29.645 49.436,29.446 49.559,29.277 49.728,29.155 49.926,29.09 50.135,29.09 50.333,29.155 50.502,29.277   50.625,29.446 50.689,29.645 50.689,29.853 50.625,30.051 50.502,30.22 "/><polyline class="st0" points="50.502,33.902 50.333,34.024 50.135,34.089 49.926,34.089 49.728,34.024 49.559,33.902 49.436,33.732   49.372,33.534 49.372,33.326 49.436,33.128 49.559,32.959 49.728,32.836 49.926,32.772 50.135,32.772 50.333,32.836 50.502,32.959   50.625,33.128 50.689,33.326 50.689,33.534 50.625,33.732 50.502,33.902 "/><polyline class="st0" points="63.421,50.502 63.252,50.625 63.053,50.689 62.845,50.689 62.646,50.625 62.478,50.502 62.355,50.333   62.291,50.135 62.291,49.926 62.355,49.728 62.478,49.559 62.646,49.436 62.845,49.372 63.053,49.372 63.252,49.436 63.421,49.559   63.543,49.728 63.608,49.926 63.608,50.135 63.543,50.333 63.421,50.502 "/><polyline class="st0" points="67.102,50.502 66.933,50.625 66.735,50.689 66.527,50.689 66.328,50.625 66.159,50.502 66.037,50.333   65.972,50.135 65.972,49.926 66.037,49.728 66.159,49.559 66.328,49.436 66.527,49.372 66.735,49.372 66.933,49.436 67.102,49.559   67.225,49.728 67.289,49.926 67.289,50.135 67.225,50.333 67.102,50.502 "/><polyline class="st0" points="70.783,50.502 70.614,50.625 70.416,50.689 70.208,50.689 70.01,50.625 69.841,50.502 69.718,50.333   69.653,50.135 69.653,49.926 69.718,49.728 69.841,49.559 70.01,49.436 70.208,49.372 70.416,49.372 70.614,49.436 70.783,49.559   70.906,49.728 70.971,49.926 70.971,50.135 70.906,50.333 70.783,50.502 "/><polyline class="st0" points="30.22,50.502 30.051,50.625 29.853,50.689 29.645,50.689 29.446,50.625 29.277,50.502 29.155,50.333   29.09,50.135 29.09,49.926 29.155,49.728 29.277,49.559 29.446,49.436 29.645,49.372 29.853,49.372 30.051,49.436 30.22,49.559   30.343,49.728 30.407,49.926 30.407,50.135 30.343,50.333 30.22,50.502 "/><polyline class="st0" points="33.902,50.502 33.732,50.625 33.534,50.689 33.326,50.689 33.128,50.625 32.959,50.502 32.836,50.333   32.772,50.135 32.772,49.926 32.836,49.728 32.959,49.559 33.128,49.436 33.326,49.372 33.534,49.372 33.732,49.436 33.902,49.559   34.024,49.728 34.089,49.926 34.089,50.135 34.024,50.333 33.902,50.502 "/><polyline class="st0" points="37.583,50.502 37.414,50.625 37.216,50.689 37.007,50.689 36.809,50.625 36.64,50.502 36.517,50.333   36.453,50.135 36.453,49.926 36.517,49.728 36.64,49.559 36.809,49.436 37.007,49.372 37.216,49.372 37.414,49.436 37.583,49.559   37.706,49.728 37.77,49.926 37.77,50.135 37.706,50.333 37.583,50.502 "/><polyline class="st0" points="50.502,63.421 50.333,63.543 50.135,63.608 49.926,63.608 49.728,63.543 49.559,63.421 49.436,63.252   49.372,63.053 49.372,62.845 49.436,62.646 49.559,62.478 49.728,62.355 49.926,62.291 50.135,62.291 50.333,62.355 50.502,62.478   50.625,62.646 50.689,62.845 50.689,63.053 50.625,63.252 50.502,63.421 "/><polyline class="st0" points="50.502,67.102 50.333,67.225 50.135,67.289 49.926,67.289 49.728,67.225 49.559,67.102 49.436,66.933   49.372,66.735 49.372,66.527 49.436,66.328 49.559,66.159 49.728,66.037 49.926,65.972 50.135,65.972 50.333,66.037 50.502,66.159   50.625,66.328 50.689,66.527 50.689,66.735 50.625,66.933 50.502,67.102 "/><polyline class="st0" points="50.502,70.783 50.333,70.906 50.135,70.971 49.926,70.971 49.728,70.906 49.559,70.783 49.436,70.614   49.372,70.416 49.372,70.208 49.436,70.01 49.559,69.841 49.728,69.718 49.926,69.653 50.135,69.653 50.333,69.718 50.502,69.841   50.625,70.01 50.689,70.208 50.689,70.416 50.625,70.614 50.502,70.783 "/><polyline class="st0" points="62.133,49.197 62.125,49.205 61.961,49.411 61.847,49.648 61.789,49.904 61.791,50.168 61.851,50.423   61.967,50.66 62.133,50.863 59.828,50.863 59.864,50.031 59.828,49.197 62.133,49.197 "/><polyline class="st0" points="71.128,49.197 73.516,49.197 73.53,50.031 73.516,50.863 71.128,50.863 71.137,50.855 71.3,50.65   71.414,50.413 71.472,50.156 71.47,49.893 71.41,49.637 71.294,49.401 71.128,49.197 "/><polyline class="st0" points="67.447,49.197 69.495,49.197 69.487,49.205 69.324,49.411 69.21,49.648 69.152,49.904 69.154,50.168   69.214,50.423 69.33,50.66 69.495,50.863 67.447,50.863 67.455,50.855 67.619,50.65 67.733,50.413 67.791,50.156 67.789,49.893   67.729,49.637 67.613,49.401 67.447,49.197 "/><polyline class="st0" points="63.766,49.197 65.814,49.197 65.806,49.205 65.642,49.411 65.529,49.648 65.47,49.904 65.472,50.168   65.532,50.423 65.649,50.66 65.814,50.863 63.766,50.863 63.774,50.855 63.938,50.65 64.051,50.413 64.109,50.156 64.108,49.893   64.048,49.637 63.931,49.401 63.766,49.197 "/><polyline class="st0" points="49.197,37.928 49.205,37.936 49.411,38.1 49.648,38.213 49.904,38.272 50.168,38.27 50.423,38.21   50.66,38.093 50.863,37.928 50.863,40.232 50.031,40.197 49.197,40.232 49.197,37.928 "/><polyline class="st0" points="49.197,28.932 49.197,26.545 50.031,26.53 50.863,26.545 50.863,28.932 50.855,28.924 50.65,28.76   50.413,28.647 50.156,28.589 49.893,28.59 49.637,28.65 49.401,28.767 49.197,28.932 "/><polyline class="st0" points="49.197,32.614 49.197,30.565 49.205,30.574 49.411,30.737 49.648,30.851 49.904,30.909 50.168,30.907   50.423,30.847 50.66,30.731 50.863,30.565 50.863,32.614 50.855,32.605 50.65,32.441 50.413,32.328 50.156,32.27 49.893,32.272   49.637,32.332 49.401,32.448 49.197,32.614 "/><polyline class="st0" points="49.197,36.295 49.197,34.247 49.205,34.255 49.411,34.419 49.648,34.532 49.904,34.59 50.168,34.589   50.423,34.529 50.66,34.412 50.863,34.247 50.863,36.295 50.855,36.287 50.65,36.123 50.413,36.01 50.156,35.951 49.893,35.953   49.637,36.013 49.401,36.13 49.197,36.295 "/><polyline class="st0" points="37.928,50.864 37.936,50.856 38.1,50.649 38.213,50.413 38.272,50.156 38.27,49.893 38.21,49.637   38.093,49.401 37.928,49.197 40.232,49.197 40.197,50.03 40.232,50.864 37.928,50.864 "/><polyline class="st0" points="28.932,50.864 26.545,50.864 26.53,50.03 26.545,49.197 28.932,49.197 28.924,49.206 28.76,49.411   28.647,49.648 28.589,49.905 28.59,50.168 28.65,50.424 28.767,50.66 28.932,50.864 "/><polyline class="st0" points="32.614,50.864 30.565,50.864 30.574,50.856 30.737,50.649 30.851,50.413 30.909,50.156 30.907,49.893   30.847,49.637 30.731,49.401 30.565,49.197 32.614,49.197 32.605,49.206 32.441,49.411 32.328,49.648 32.27,49.905 32.272,50.168   32.332,50.424 32.448,50.66 32.614,50.864 "/><polyline class="st0" points="36.295,50.864 34.247,50.864 34.255,50.856 34.419,50.649 34.532,50.413 34.59,50.156 34.589,49.893   34.529,49.637 34.412,49.401 34.247,49.197 36.295,49.197 36.287,49.206 36.123,49.411 36.01,49.648 35.951,49.905 35.953,50.168   36.013,50.424 36.13,50.66 36.295,50.864 "/><polyline class="st0" points="50.864,62.133 50.856,62.125 50.649,61.961 50.413,61.847 50.156,61.789 49.893,61.791 49.637,61.851   49.401,61.967 49.197,62.133 49.197,59.828 50.03,59.864 50.864,59.828 50.864,62.133 "/><polyline class="st0" points="50.864,71.128 50.864,73.516 50.03,73.53 49.197,73.516 49.197,71.128 49.206,71.137 49.411,71.3   49.648,71.414 49.905,71.472 50.168,71.47 50.424,71.41 50.66,71.294 50.864,71.128 "/><polyline class="st0" points="50.864,67.447 50.864,69.495 50.856,69.487 50.649,69.324 50.413,69.21 50.156,69.152 49.893,69.154   49.637,69.214 49.401,69.33 49.197,69.495 49.197,67.447 49.206,67.455 49.411,67.619 49.648,67.733 49.905,67.791 50.168,67.789   50.424,67.729 50.66,67.613 50.864,67.447 "/><polyline class="st0" points="50.864,63.766 50.864,65.814 50.856,65.806 50.649,65.642 50.413,65.529 50.156,65.47 49.893,65.472   49.637,65.532 49.401,65.649 49.197,65.814 49.197,63.766 49.206,63.774 49.411,63.938 49.648,64.051 49.905,64.109 50.168,64.108   50.424,64.048 50.66,63.931 50.864,63.766 "/><polyline class="st0" points="46.731,46.731 47.171,46.343 47.655,46.013 48.177,45.748 48.729,45.549 49.301,45.421 49.884,45.366   50.47,45.384 51.049,45.476 51.611,45.64 52.149,45.872 52.653,46.171 53.117,46.53 53.531,46.944 53.89,47.407 54.189,47.911   54.421,48.45 54.584,49.012 54.676,49.591 54.695,50.177 54.64,50.761 54.511,51.332 54.313,51.883 54.047,52.406 53.718,52.891   53.331,53.331 52.891,53.718 52.406,54.047 51.883,54.313 51.332,54.511 50.761,54.64 50.177,54.695 49.591,54.676 49.012,54.584   48.45,54.421 47.911,54.189 47.407,53.89 46.944,53.531 46.53,53.117 46.171,52.653 45.872,52.149 45.64,51.611 45.476,51.049   45.384,50.47 45.366,49.884 45.421,49.301 45.549,48.729 45.748,48.177 46.013,47.655 46.343,47.171 46.731,46.731 "/><polyline class="st0" points="49.392,41.387 49.206,41.539 49.038,41.751 48.924,41.995 48.868,42.259 48.876,42.529 48.945,42.79   49.072,43.028 49.25,43.231 49.47,43.387 48.844,43.47 48.227,43.612 47.627,43.812 47.049,44.067 46.497,44.377 45.977,44.737   45.494,45.145 45.526,44.88 45.498,44.615 45.411,44.364 45.268,44.138 45.078,43.951 44.851,43.812 44.597,43.728 44.332,43.704   44.067,43.741 44.627,43.254 45.226,42.816 45.861,42.433 46.526,42.104 47.217,41.833 47.928,41.623 48.655,41.474 49.392,41.387   "/><polyline class="st0" points="44.74,45.973 44.379,46.493 44.069,47.046 43.813,47.625 43.613,48.226 43.47,48.842 43.388,49.471   43.231,49.251 43.029,49.071 42.79,48.944 42.529,48.876 42.259,48.869 41.995,48.923 41.75,49.038 41.539,49.205 41.388,49.392   41.472,48.666 41.618,47.949 41.823,47.247 42.087,46.565 42.408,45.908 42.782,45.28 43.209,44.685 43.197,44.951 43.245,45.214   43.352,45.458 43.512,45.671 43.717,45.843 43.954,45.964 44.213,46.028 44.48,46.031 44.74,45.973 "/><polyline class="st0" points="41.387,50.669 41.579,50.893 41.821,51.063 42.097,51.166 42.392,51.197 42.684,51.153 42.955,51.036   43.189,50.855 43.297,50.73 43.387,50.591 43.47,51.217 43.612,51.833 43.812,52.433 44.067,53.012 44.377,53.563 44.737,54.083   45.145,54.567 44.849,54.534 44.555,54.577 44.281,54.693 44.045,54.875 43.893,55.063 43.783,55.279 43.719,55.513 43.705,55.753   43.741,55.993 43.254,55.433 42.816,54.834 42.433,54.2 42.104,53.534 41.833,52.843 41.623,52.133 41.474,51.406 41.387,50.669 "/><polyline class="st0" points="50.669,41.387 51.395,41.472 52.112,41.617 52.813,41.823 53.496,42.086 54.153,42.407 54.782,42.782   55.375,43.208 55.101,43.197 54.832,43.25 54.582,43.365 54.365,43.535 54.203,43.738 54.09,43.973 54.032,44.226 54.031,44.486   54.087,44.74 53.567,44.379 53.015,44.069 52.436,43.813 51.835,43.613 51.218,43.47 50.591,43.387 50.73,43.297 50.855,43.189   51.036,42.955 51.153,42.684 51.197,42.392 51.166,42.097 51.063,41.821 50.893,41.579 50.669,41.387 "/><polyline class="st0" points="56.32,44.068 56.806,44.628 57.244,45.227 57.628,45.861 57.957,46.526 58.228,47.217 58.438,47.929   58.587,48.655 58.674,49.392 58.482,49.167 58.24,48.998 57.963,48.894 57.669,48.864 57.377,48.909 57.105,49.025 56.872,49.206   56.764,49.331 56.674,49.47 56.591,48.843 56.448,48.228 56.249,47.627 55.993,47.049 55.684,46.497 55.324,45.978 54.915,45.494   55.212,45.527 55.506,45.483 55.78,45.367 56.015,45.185 56.168,44.997 56.278,44.782 56.342,44.549 56.356,44.307 56.32,44.068 "/><polyline class="st0" points="45.973,55.32 46.493,55.681 47.046,55.991 47.625,56.248 48.226,56.448 48.842,56.59 49.471,56.673   49.331,56.763 49.205,56.872 49.025,57.106 48.909,57.377 48.864,57.67 48.894,57.963 48.998,58.24 49.167,58.482 49.392,58.673   48.666,58.589 47.949,58.443 47.247,58.238 46.565,57.974 45.908,57.653 45.28,57.279 44.685,56.852 44.96,56.864 45.23,56.81   45.48,56.696 45.695,56.526 45.858,56.322 45.971,56.088 46.03,55.834 46.03,55.574 45.973,55.32 "/><polyline class="st0" points="50.59,56.674 51.218,56.591 51.834,56.448 52.434,56.249 53.012,55.993 53.564,55.684 54.083,55.324   54.567,54.915 54.534,55.18 54.562,55.445 54.649,55.697 54.792,55.923 54.982,56.11 55.21,56.249 55.463,56.333 55.729,56.357   55.993,56.32 55.433,56.806 54.834,57.244 54.199,57.628 53.535,57.957 52.844,58.228 52.132,58.438 51.406,58.587 50.668,58.674   50.856,58.522 51.023,58.31 51.138,58.065 51.192,57.802 51.185,57.532 51.117,57.27 50.989,57.032 50.81,56.83 50.59,56.674 "/><polyline class="st0" points="58.522,50.855 58.674,50.669 58.589,51.395 58.443,52.112 58.238,52.814 57.974,53.496 57.654,54.154   57.279,54.782 56.853,55.375 56.865,55.109 56.816,54.847 56.708,54.603 56.548,54.389 56.345,54.217 56.107,54.097 55.847,54.033   55.581,54.03 55.32,54.087 55.681,53.567 55.992,53.015 56.248,52.436 56.448,51.835 56.59,51.218 56.674,50.59 56.829,50.811   57.032,50.989 57.27,51.116 57.531,51.185 57.801,51.193 58.066,51.137 58.31,51.023 58.522,50.855 "/><text x="0" y="115" fill="#000000" font-size="5px" font-weight="bold" font-family="'Helvetica Neue', Helvetica, Arial-Unicode, Arial, Sans-serif">Created by Tresnatiq</text><text x="0" y="120" fill="#000000" font-size="5px" font-weight="bold" font-family="'Helvetica Neue', Helvetica, Arial-Unicode, Arial, Sans-serif">from the Noun Project</text></svg>