<svg xmlns="http://www.w3.org/2000/svg" xmlns:xlink="http://www.w3.org/1999/xlink" version="1.1" x="0px" y="0px" viewBox="0 0 100 125" style="enable-background:new 0 0 100 100;" xml:space="preserve"><path d="M89.3,41c-2.7-1.3-5.8-1.2-8.4,0c0,0,0,0,0,0c0,0,0,0,0,0v-0.9h-7.5c-2.1,0-4.2,0.7-5.8,1.9l0,0h0v0  c-1.7-1.3-3.7-1.9-5.8-1.9c-2.1,0-4.2,0.7-5.8,1.9l0,0v0c-1.7-1.2-3.7-1.9-5.8-1.9c-2.1,0-4.2,0.7-5.8,1.9v0  c-3.5-2.6-8.3-2.5-11.7,0c0,0,0,0,0,0c0,0,0,0,0,0c-1.7-1.2-3.7-1.9-5.8-1.9h-7.5V41v0c-2.5-1.2-5.4-1.2-8-0.2  c-5.1,2.1-7.5,7.9-5.4,13c2.1,5.1,7.9,7.5,13,5.4c0.1-0.1,0.3-0.1,0.4-0.2c0,0,0,0,0,0c0,0,0,0,0,0v0.9h7.5c2.1,0,4.2-0.7,5.8-1.9  c0,0,0,0,0,0c0,0,0,0,0,0c1.7,1.2,3.7,1.9,5.8,1.9c2.1,0,4.2-0.7,5.8-1.9v0c3.5,2.6,8.3,2.5,11.7,0c0,0,0,0,0,0c0,0,0,0,0,0  c1.7,1.2,3.7,1.9,5.8,1.9c2.1,0,4.2-0.7,5.8-1.9c0,0,0,0,0,0v0c1.7,1.2,3.7,1.9,5.8,1.9h7.5V59h0c5,2.3,10.9,0.2,13.2-4.8  C96.4,49.2,94.2,43.3,89.3,41z M19.1,55.1c-0.5,0.4-1.1,0.7-1.7,1c-3.4,1.4-7.2-0.2-8.6-3.6c-1.4-3.4,0.2-7.2,3.6-8.6  c2.3-0.9,4.8-0.6,6.7,1V55.1C19.1,55.1,19.1,55.1,19.1,55.1C19.1,55.1,19.1,55.1,19.1,55.1z M61.7,43.4c1.2,0,2.3,0.3,3.4,0.9l0,0h0  l-3.4,3.4v0l-3.4-3.4v0l0,0h0C59.3,43.7,60.5,43.4,61.7,43.4z M46.6,44.3c1-0.6,2.2-0.9,3.4-0.9c1.2,0,2.3,0.3,3.4,0.9h0L50,47.7v0  L46.6,44.3C46.6,44.3,46.6,44.3,46.6,44.3C46.6,44.3,46.6,44.3,46.6,44.3z M41.7,44.3L41.7,44.3l-3.4,3.4L35,44.3  C37,43.1,39.6,43.1,41.7,44.3z M30,44.3L30,44.3L30,44.3L30,44.3z M22.4,43.4h4.2c1.2,0,2.3,0.3,3.4,0.9h0l-3.4,3.4l0,0L22.4,43.4  L22.4,43.4z M22.4,51.8v-3.7l1.9,1.9l0,0l0,0L22.4,51.8L22.4,51.8L22.4,51.8z M30,55.7c-1,0.6-2.2,0.9-3.4,0.9h-4.2l0-0.1l4.2-4.2  l0,0L30,55.7L30,55.7C30,55.7,30,55.7,30,55.7C30,55.7,30,55.7,30,55.7z M32.5,53.5L32.5,53.5L32.5,53.5L29,50l0,0l0,0l3.5-3.5v0  L36,50l0,0l0,0L32.5,53.5z M41.7,55.7L41.7,55.7c-1,0.6-2.2,0.9-3.4,0.9c-1.2,0-2.3-0.3-3.4-0.9l0,0l3.4-3.4l0,0l0,0L41.7,55.7  L41.7,55.7z M40.6,50L40.6,50l3.5-3.5l0,0l0,0l3.5,3.5v0l-3.5,3.5l0,0L40.6,50z M46.6,55.7l3.4-3.4l3.4,3.4  C51.3,56.9,48.7,56.9,46.6,55.7z M55.8,53.5L52.3,50v0l3.5-3.5l3.5,3.5L55.8,53.5z M65.1,55.7c-1,0.6-2.2,0.9-3.4,0.9  c-1.2,0-2.3-0.3-3.4-0.9l0,0l0,0l3.4-3.4L65.1,55.7C65.1,55.7,65.1,55.7,65.1,55.7C65.1,55.7,65.1,55.7,65.1,55.7z M67.5,53.5  L67.5,53.5L64,50l0,0l3.5-3.5l0,0l0,0L71,50v0L67.5,53.5L67.5,53.5z M77.6,56.6h-4.2c-1.2,0-2.3-0.3-3.4-0.9l3.4-3.4h0L77.6,56.6  L77.6,56.6z M77.6,51.8L75.7,50l0,0l1.8-1.8V51.8z M73.4,47.7L70,44.3c0,0,0,0,0,0c1-0.6,2.2-0.9,3.4-0.9h4.2v0.1h0L73.4,47.7z   M90.2,54.2c-2.3,2.8-6.5,3.2-9.3,0.9V44.9v0v0c2.4-2,5.9-2,8.4,0C92.1,47.2,92.5,51.4,90.2,54.2z"/><text x="0" y="115" fill="#000000" font-size="5px" font-weight="bold" font-family="'Helvetica Neue', Helvetica, Arial-Unicode, Arial, Sans-serif">Created by Federico Panzano</text><text x="0" y="120" fill="#000000" font-size="5px" font-weight="bold" font-family="'Helvetica Neue', Helvetica, Arial-Unicode, Arial, Sans-serif">from the Noun Project</text></svg>