<svg xmlns="http://www.w3.org/2000/svg" xmlns:xlink="http://www.w3.org/1999/xlink" version="1.1" x="0px" y="0px" viewBox="0 0 100 125" style="enable-background:new 0 0 100 100;" xml:space="preserve"><style type="text/css">
	.st0{fill-rule:evenodd;clip-rule:evenodd;}
</style><path class="st0" d="M49.197,71.129v2.387l0.834,0.015l0.834-0.015v-2.387l-0.205,0.165l-0.235,0.116l-0.256,0.06l-0.263,0.002  l-0.256-0.058l-0.237-0.114l-0.206-0.164L49.197,71.129 M71.137,50.855l-0.008,0.009h2.387l0.015-0.834l-0.015-0.834h-2.387  l0.165,0.205l0.116,0.235l0.06,0.256l0.002,0.263l-0.058,0.256l-0.114,0.237L71.137,50.855 M69.841,49.559l-0.123,0.169  l-0.065,0.198v0.209l0.065,0.198l0.123,0.168l0.169,0.123l0.198,0.065h0.208l0.199-0.065l0.168-0.123l0.123-0.168l0.065-0.198  v-0.209l-0.065-0.198l-0.123-0.169l-0.168-0.123l-0.199-0.064h-0.208l-0.198,0.064L69.841,49.559 M50.501,70.783l0.123-0.168  l0.065-0.199v-0.208l-0.065-0.198l-0.123-0.169l-0.168-0.123l-0.198-0.065h-0.209l-0.198,0.065l-0.169,0.123l-0.123,0.169  l-0.064,0.198v0.208l0.064,0.199l0.123,0.168l0.169,0.123l0.198,0.065h0.209l0.198-0.065L50.501,70.783 M49.197,69.495l0.205-0.165  l0.235-0.116l0.256-0.06l0.263-0.001l0.256,0.057l0.237,0.114l0.205,0.164l0.009,0.008v-2.048l-0.205,0.166l-0.235,0.115  l-0.256,0.061l-0.263,0.001l-0.256-0.057l-0.237-0.114l-0.206-0.164l-0.008-0.009V69.495 M67.456,50.855l-0.009,0.009h2.048  L69.33,50.66l-0.116-0.235l-0.06-0.256l-0.001-0.263l0.057-0.256l0.114-0.237l0.164-0.206l0.008-0.008h-2.048l0.166,0.205  l0.115,0.235l0.061,0.256l0.001,0.263l-0.057,0.256L67.62,50.65L67.456,50.855 M49.559,66.16l-0.123,0.168l-0.064,0.198v0.209  l0.064,0.198l0.123,0.169l0.169,0.123l0.198,0.064h0.209l0.198-0.064l0.168-0.123l0.123-0.169l0.065-0.198v-0.209l-0.065-0.198  l-0.123-0.168l-0.168-0.123l-0.198-0.065h-0.209l-0.198,0.065L49.559,66.16 M67.102,50.501l0.123-0.168l0.064-0.198v-0.209  l-0.064-0.198l-0.123-0.169l-0.169-0.123l-0.198-0.064h-0.209l-0.198,0.064l-0.168,0.123l-0.123,0.169l-0.065,0.198v0.209  l0.065,0.198l0.123,0.168l0.168,0.123l0.198,0.065h0.209l0.198-0.065L67.102,50.501 M63.766,49.197l0.165,0.205l0.116,0.235  l0.06,0.256l0.001,0.263l-0.057,0.256l-0.114,0.237l-0.164,0.205l-0.008,0.009h2.048l-0.166-0.205l-0.115-0.235l-0.06-0.256  l-0.002-0.263l0.058-0.256l0.114-0.237l0.164-0.206l0.008-0.008H63.766 M49.197,65.814l0.205-0.166l0.235-0.115l0.256-0.06  l0.263-0.002l0.256,0.058l0.237,0.114l0.205,0.164l0.009,0.008v-2.048l-0.205,0.165l-0.235,0.116l-0.256,0.06l-0.263,0.001  l-0.256-0.057l-0.237-0.114l-0.206-0.164l-0.008-0.008V65.814 M62.478,49.559l-0.123,0.169l-0.065,0.198v0.209l0.065,0.198  l0.123,0.168l0.169,0.123l0.198,0.065h0.208l0.199-0.065l0.168-0.123l0.123-0.168l0.065-0.198v-0.209l-0.065-0.198l-0.123-0.169  l-0.168-0.123l-0.199-0.064h-0.208l-0.198,0.064L62.478,49.559 M50.501,63.421l0.123-0.168l0.065-0.199v-0.208l-0.065-0.198  l-0.123-0.169l-0.168-0.123l-0.198-0.065h-0.209l-0.198,0.065l-0.169,0.123l-0.123,0.169l-0.064,0.198v0.208l0.064,0.199  l0.123,0.168l0.169,0.123l0.198,0.065h0.209l0.198-0.065L50.501,63.421 M59.552,51.697l-0.182,0.825l-0.254,0.806l-0.323,0.781  l-0.39,0.75l-0.454,0.713l-0.514,0.67l-0.571,0.624l-0.624,0.571l-0.67,0.514l-0.713,0.454l-0.75,0.39l-0.781,0.323l-0.806,0.254  l-0.825,0.182v14.086l1.295-0.127l1.286-0.199l1.273-0.268l1.257-0.338l1.235-0.407l1.212-0.474l1.185-0.54l1.153-0.605l1.117-0.667  l1.079-0.727l1.037-0.785l0.994-0.842l0.945-0.895l0.895-0.945l0.842-0.994l0.785-1.037l0.727-1.079l0.667-1.117l0.605-1.153  l0.54-1.185l0.474-1.212l0.407-1.235l0.338-1.257l0.268-1.273l0.199-1.286l0.127-1.295H59.552 M55.23,54.719l-0.123,0.169  l-0.065,0.198v0.209l0.065,0.198l0.123,0.169l0.168,0.122l0.198,0.065h0.209l0.198-0.065l0.169-0.122l0.123-0.169l0.064-0.198  v-0.209l-0.064-0.198l-0.123-0.169l-0.169-0.122l-0.198-0.065h-0.209l-0.198,0.065L55.23,54.719 M49.197,62.133l0.205-0.166  l0.235-0.115l0.256-0.061l0.263-0.001l0.256,0.057l0.237,0.114l0.205,0.164l0.009,0.009v-2.305l-0.834,0.035l-0.834-0.035V62.133   M59.829,49.197l0.035,0.834l-0.035,0.834h2.305l-0.166-0.205l-0.115-0.235l-0.061-0.256l-0.001-0.263l0.057-0.256l0.114-0.237  l0.164-0.206l0.009-0.008H59.829 M55.321,54.088l0.26-0.058l0.267,0.004l0.259,0.064l0.237,0.121l0.205,0.171l0.16,0.214  l0.107,0.245l0.048,0.262l-0.012,0.266l0.426-0.594l0.375-0.628l0.321-0.657l0.264-0.682l0.205-0.702l0.145-0.717l0.085-0.726  l-0.151,0.186l-0.212,0.168l-0.245,0.114l-0.265,0.055l-0.27-0.007l-0.261-0.069l-0.238-0.127l-0.203-0.178l-0.156-0.22  l-0.083,0.627l-0.143,0.617l-0.2,0.601l-0.256,0.579l-0.31,0.552L55.321,54.088 M50.855,58.522l-0.186,0.151l0.737-0.086  l0.726-0.149l0.712-0.21l0.69-0.271l0.665-0.328l0.635-0.385l0.599-0.437l0.56-0.487l-0.265,0.037l-0.265-0.025l-0.253-0.084  l-0.228-0.139l-0.19-0.186l-0.143-0.225l-0.087-0.252l-0.028-0.265l0.033-0.265l-0.484,0.407l-0.52,0.361l-0.551,0.309l-0.579,0.255  l-0.6,0.2l-0.616,0.142l-0.626,0.083l0.22,0.156l0.178,0.203l0.127,0.238l0.069,0.261l0.007,0.27l-0.055,0.265l-0.114,0.245  L50.855,58.522 M50.501,58.169L50.624,58l0.065-0.198v-0.209l-0.065-0.198l-0.123-0.168l-0.168-0.123l-0.198-0.065h-0.209  l-0.198,0.065l-0.169,0.123l-0.123,0.168l-0.064,0.198v0.209L49.436,58l0.123,0.169l0.169,0.123l0.198,0.065h0.209l0.198-0.065  L50.501,58.169 M58.169,50.501l0.123-0.168l0.065-0.198v-0.209l-0.065-0.198l-0.123-0.169L58,49.436l-0.198-0.064h-0.209  l-0.198,0.064l-0.168,0.123l-0.123,0.169l-0.065,0.198v0.209l0.065,0.198l0.123,0.168l0.168,0.123l0.198,0.065h0.209L58,50.624  L58.169,50.501 M45.973,55.321l0.057,0.254l-0.001,0.26l-0.059,0.254l-0.113,0.235l-0.163,0.204l-0.215,0.17l-0.25,0.115  l-0.27,0.054l-0.275-0.012l0.595,0.426l0.628,0.375l0.657,0.321l0.682,0.264l0.702,0.205l0.717,0.145l0.726,0.085l-0.225-0.192  l-0.169-0.242l-0.104-0.276l-0.03-0.294l0.045-0.293l0.116-0.271l0.18-0.234l0.125-0.109l0.14-0.09l-0.628-0.083l-0.616-0.143  l-0.601-0.2l-0.579-0.256l-0.553-0.31L45.973,55.321 M56.015,45.185l-0.235,0.182l-0.274,0.116l-0.295,0.044l-0.295-0.033  l0.407,0.484l0.361,0.519l0.309,0.552l0.255,0.578l0.2,0.6l0.142,0.616l0.083,0.627l0.09-0.14l0.109-0.125l0.234-0.18l0.271-0.116  l0.293-0.045l0.294,0.03l0.276,0.104l0.242,0.169l0.192,0.225l-0.086-0.737l-0.149-0.726l-0.21-0.712l-0.271-0.691l-0.328-0.665  l-0.385-0.635l-0.437-0.599l-0.487-0.56l0.036,0.239l-0.015,0.242l-0.064,0.234l-0.11,0.215L56.015,45.185 M44.399,55.23  l-0.123,0.168l-0.065,0.198v0.209l0.065,0.198l0.123,0.169l0.169,0.123l0.198,0.064h0.209l0.198-0.064l0.168-0.123l0.123-0.169  l0.065-0.198v-0.209l-0.065-0.198l-0.123-0.168l-0.168-0.123l-0.198-0.065h-0.209l-0.198,0.065L44.399,55.23 M54.719,43.889  l-0.122,0.169l-0.065,0.198v0.208l0.065,0.199l0.122,0.168l0.169,0.123l0.198,0.065h0.209l0.198-0.065l0.169-0.123l0.122-0.168  l0.065-0.199v-0.208l-0.065-0.198l-0.122-0.169l-0.169-0.123l-0.198-0.065h-0.209l-0.198,0.065L54.719,43.889 M50.855,43.189  l-0.125,0.109l-0.139,0.089l0.627,0.084l0.617,0.142l0.601,0.201l0.579,0.256l0.552,0.31l0.521,0.361l-0.057-0.254l0.001-0.261  l0.058-0.253l0.114-0.235l0.163-0.204l0.215-0.17l0.25-0.115l0.269-0.054l0.275,0.012l-0.594-0.426l-0.628-0.375l-0.657-0.32  l-0.682-0.264l-0.702-0.205l-0.717-0.145l-0.726-0.085l0.225,0.192l0.17,0.242l0.103,0.277l0.031,0.294l-0.045,0.292l-0.116,0.272  L50.855,43.189 M43.741,55.993l-0.035-0.239l0.014-0.242l0.064-0.234l0.111-0.215l0.152-0.187l0.235-0.182l0.275-0.116l0.295-0.044  l0.295,0.033l-0.408-0.484l-0.36-0.52l-0.309-0.551l-0.255-0.579l-0.2-0.6l-0.142-0.616l-0.084-0.626l-0.089,0.139l-0.109,0.125  l-0.234,0.181l-0.272,0.116l-0.292,0.045l-0.294-0.031l-0.277-0.103l-0.242-0.17l-0.192-0.225l0.086,0.737l0.149,0.726l0.211,0.712  l0.271,0.69l0.328,0.665l0.385,0.635l0.437,0.599L43.741,55.993 M54.273,54.273l0.448-0.502l0.389-0.549l0.325-0.588l0.258-0.622  l0.185-0.646l0.113-0.664l0.038-0.672l-0.038-0.672l-0.113-0.664l-0.185-0.646l-0.258-0.622l-0.325-0.589l-0.389-0.548l-0.448-0.502  l-0.502-0.448l-0.549-0.389l-0.588-0.326l-0.622-0.257l-0.646-0.186l-0.664-0.113l-0.672-0.037l-0.672,0.037l-0.664,0.113  l-0.646,0.186l-0.622,0.257l-0.589,0.326L46.29,45.34l-0.502,0.448L45.34,46.29l-0.389,0.548l-0.326,0.589l-0.257,0.622  l-0.186,0.646l-0.113,0.664l-0.037,0.672l0.037,0.672l0.113,0.664l0.186,0.646l0.257,0.622l0.326,0.588l0.389,0.549l0.448,0.502  l0.502,0.448l0.548,0.389l0.589,0.325l0.622,0.258l0.646,0.185l0.664,0.113l0.672,0.038l0.672-0.038l0.664-0.113l0.646-0.185  l0.622-0.258l0.588-0.325l0.549-0.389L54.273,54.273 M50.501,42.835l0.123-0.169l0.065-0.198V42.26l-0.065-0.198l-0.123-0.169  l-0.168-0.123l-0.198-0.065h-0.209l-0.198,0.065l-0.169,0.123l-0.123,0.169l-0.064,0.198v0.208l0.064,0.198l0.123,0.169l0.169,0.123  l0.198,0.065h0.209l0.198-0.065L50.501,42.835 M42.835,50.501l0.123-0.168l0.065-0.198v-0.209l-0.065-0.198l-0.123-0.169  l-0.169-0.123l-0.198-0.064H42.26l-0.198,0.064l-0.169,0.123l-0.123,0.169l-0.065,0.198v0.209l0.065,0.198l0.123,0.168l0.169,0.123  l0.198,0.065h0.208l0.198-0.065L42.835,50.501 M43.889,44.399l-0.123,0.169l-0.065,0.198v0.209l0.065,0.198l0.123,0.168l0.169,0.123  l0.198,0.065h0.208l0.199-0.065l0.168-0.123l0.123-0.168l0.065-0.198v-0.209l-0.065-0.198l-0.123-0.169l-0.168-0.123l-0.199-0.065  h-0.208l-0.198,0.065L43.889,44.399 M43.209,44.685l-0.426,0.595l-0.375,0.628l-0.32,0.657l-0.264,0.682l-0.205,0.702l-0.145,0.717  l-0.085,0.726l0.152-0.187l0.212-0.167l0.245-0.115l0.265-0.055l0.27,0.007l0.261,0.068l0.238,0.127l0.203,0.179l0.155,0.22  l0.084-0.628l0.142-0.616l0.201-0.601l0.256-0.579l0.31-0.553l0.361-0.52l-0.261,0.057l-0.266-0.003l-0.259-0.064l-0.237-0.121  l-0.205-0.172l-0.16-0.214l-0.107-0.244l-0.049-0.263L43.209,44.685 M44.068,43.741l0.265-0.036l0.265,0.024l0.253,0.084  l0.228,0.139l0.19,0.187l0.142,0.225l0.088,0.252l0.028,0.265l-0.033,0.265l0.484-0.408l0.519-0.36l0.552-0.309l0.578-0.255l0.6-0.2  l0.616-0.142l0.627-0.084l-0.22-0.155l-0.179-0.203l-0.127-0.238l-0.068-0.261l-0.007-0.27l0.055-0.265l0.115-0.245l0.167-0.212  l0.187-0.152l-0.737,0.086l-0.726,0.149l-0.712,0.211l-0.691,0.271l-0.665,0.328l-0.635,0.385l-0.599,0.437L44.068,43.741   M37.937,50.855l-0.009,0.009h2.305l-0.035-0.834l0.035-0.834h-2.305l0.166,0.205l0.115,0.235l0.06,0.256l0.002,0.263l-0.057,0.256  l-0.114,0.237L37.937,50.855 M49.197,40.232l0.834-0.035l0.834,0.035v-2.305l-0.205,0.166l-0.235,0.115l-0.256,0.06l-0.263,0.002  l-0.256-0.057l-0.237-0.114l-0.206-0.164l-0.008-0.009V40.232 M49.559,36.641l-0.123,0.168l-0.064,0.198v0.209l0.064,0.198  l0.123,0.169l0.169,0.122l0.198,0.065h0.209l0.198-0.065l0.168-0.122l0.123-0.169l0.065-0.198v-0.209l-0.065-0.198l-0.123-0.168  l-0.168-0.123l-0.198-0.065h-0.209l-0.198,0.065L49.559,36.641 M36.641,49.559l-0.123,0.169l-0.065,0.198v0.209l0.065,0.198  l0.123,0.168l0.168,0.123l0.198,0.065h0.209l0.198-0.065l0.169-0.123l0.122-0.168l0.065-0.198v-0.209l-0.065-0.198l-0.122-0.169  l-0.169-0.123l-0.198-0.064h-0.209l-0.198,0.064L36.641,49.559 M34.255,50.855l-0.008,0.009h2.048l-0.166-0.205l-0.115-0.235  l-0.06-0.256l-0.002-0.263l0.058-0.256l0.113-0.237l0.165-0.206l0.008-0.008h-2.048l0.165,0.205l0.116,0.235l0.06,0.256l0.001,0.263  l-0.057,0.256l-0.114,0.237L34.255,50.855 M49.197,34.247v2.048l0.205-0.166l0.235-0.115l0.256-0.06l0.263-0.002l0.256,0.058  l0.237,0.113l0.205,0.165l0.009,0.008v-2.048l-0.205,0.165l-0.235,0.116l-0.256,0.06l-0.263,0.001l-0.256-0.057l-0.237-0.114  l-0.206-0.164L49.197,34.247 M32.959,49.559l-0.123,0.169l-0.065,0.198v0.209l0.065,0.198l0.123,0.168l0.169,0.123l0.198,0.065  h0.208l0.199-0.065l0.168-0.123l0.123-0.168l0.065-0.198v-0.209l-0.065-0.198l-0.123-0.169l-0.168-0.123l-0.199-0.064h-0.208  l-0.198,0.064L32.959,49.559 M50.501,33.901l0.123-0.168l0.065-0.199v-0.208l-0.065-0.198l-0.123-0.169l-0.168-0.123l-0.198-0.065  h-0.209l-0.198,0.065l-0.169,0.123l-0.123,0.169l-0.064,0.198v0.208l0.064,0.199l0.123,0.168l0.169,0.123l0.198,0.065h0.209  l0.198-0.065L50.501,33.901 M30.565,49.197l0.166,0.205l0.115,0.235l0.061,0.256l0.001,0.263l-0.057,0.256l-0.114,0.237  l-0.164,0.205l-0.009,0.009h2.048l-0.165-0.205l-0.116-0.235l-0.06-0.256l-0.001-0.263l0.057-0.256l0.114-0.237l0.164-0.206  l0.008-0.008H30.565 M49.197,32.613l0.205-0.165l0.235-0.116l0.256-0.06l0.263-0.001l0.256,0.057l0.237,0.114l0.205,0.164  l0.009,0.008v-2.048l-0.205,0.166l-0.235,0.115l-0.256,0.061l-0.263,0.001l-0.256-0.057l-0.237-0.114l-0.206-0.164l-0.008-0.009  V32.613 M49.559,29.278l-0.123,0.168l-0.064,0.198v0.209l0.064,0.198l0.123,0.169l0.169,0.123l0.198,0.064h0.209l0.198-0.064  l0.168-0.123l0.123-0.169l0.065-0.198v-0.209l-0.065-0.198l-0.123-0.168l-0.168-0.123l-0.198-0.065h-0.209l-0.198,0.065  L49.559,29.278 M29.278,49.559l-0.123,0.169l-0.065,0.198v0.209l0.065,0.198l0.123,0.168l0.168,0.123l0.198,0.065h0.209l0.198-0.065  l0.169-0.123l0.123-0.168l0.064-0.198v-0.209l-0.064-0.198l-0.123-0.169l-0.169-0.123l-0.198-0.064h-0.209l-0.198,0.064  L29.278,49.559 M26.422,51.697l0.127,1.295l0.198,1.286l0.269,1.273l0.338,1.257l0.407,1.235l0.474,1.212l0.54,1.185l0.605,1.153  l0.666,1.117l0.727,1.079l0.785,1.037l0.842,0.994l0.895,0.945l0.945,0.895l0.993,0.842l1.038,0.785l1.079,0.727l1.117,0.667  l1.153,0.605l1.184,0.54l1.212,0.474l1.236,0.407l1.257,0.338l1.273,0.268l1.286,0.199l1.295,0.127V59.552l-0.825-0.182  l-0.806-0.254l-0.781-0.323l-0.75-0.39l-0.713-0.454l-0.671-0.514l-0.623-0.571l-0.571-0.624l-0.515-0.67l-0.454-0.713l-0.389-0.75  l-0.323-0.781l-0.254-0.806l-0.182-0.825H26.422 M51.697,26.422v14.086l0.825,0.182l0.806,0.254l0.781,0.323l0.75,0.389l0.713,0.454  l0.67,0.515l0.624,0.571l0.571,0.623l0.514,0.671l0.454,0.713l0.39,0.75l0.323,0.781l0.254,0.806l0.182,0.825h14.086l-0.127-1.295  l-0.199-1.286l-0.268-1.273l-0.338-1.257l-0.407-1.236l-0.474-1.212l-0.54-1.184l-0.605-1.153l-0.667-1.117l-0.727-1.079  l-0.785-1.038l-0.842-0.993l-0.895-0.945l-0.945-0.895l-0.994-0.842l-1.037-0.785l-1.079-0.727l-1.117-0.666l-1.153-0.605  l-1.185-0.54l-1.212-0.474l-1.235-0.407l-1.257-0.338l-1.273-0.269l-1.286-0.198L51.697,26.422 M26.545,50.864h2.387l-0.165-0.205  l-0.116-0.235l-0.06-0.256l-0.002-0.263l0.058-0.256l0.113-0.237l0.165-0.206l0.008-0.008h-2.387l-0.015,0.834L26.545,50.864   M49.197,28.932l0.205-0.165l0.235-0.116l0.256-0.06l0.263-0.002l0.256,0.058l0.237,0.113l0.205,0.165l0.009,0.008v-2.387  l-0.834-0.015l-0.834,0.015V28.932 M26.422,48.364h14.086l0.182-0.825l0.254-0.806l0.323-0.781l0.389-0.75l0.454-0.713l0.515-0.671  l0.571-0.623l0.623-0.571l0.671-0.515l0.713-0.454l0.75-0.389l0.781-0.323l0.806-0.254l0.825-0.182V26.422l-1.295,0.127  l-1.286,0.198l-1.273,0.269l-1.257,0.338l-1.236,0.407l-1.212,0.474l-1.184,0.54l-1.153,0.605l-1.117,0.666l-1.079,0.727  l-1.038,0.785l-0.993,0.842l-0.945,0.895l-0.895,0.945l-0.842,0.993l-0.785,1.038l-0.727,1.079l-0.666,1.117l-0.605,1.153  l-0.54,1.184l-0.474,1.212l-0.407,1.236l-0.338,1.257l-0.269,1.273l-0.198,1.286L26.422,48.364 M67.472,67.472l-0.987,0.935  l-1.037,0.878l-1.085,0.82l-1.127,0.759l-1.168,0.696l-1.204,0.63l-1.237,0.564l-1.266,0.494l-1.292,0.424l-1.313,0.352  l-1.331,0.279l-1.344,0.205l-1.353,0.131l-1.358,0.056l-1.359-0.019l-1.356-0.094l-1.349-0.168l-1.337-0.242l-1.323-0.315  l-1.303-0.388l-1.279-0.459l-1.253-0.529l-1.221-0.596l-1.186-0.664l-1.148-0.728l-1.106-0.79l-1.061-0.849l-1.013-0.907  l-0.962-0.961l-0.906-1.013l-0.85-1.061l-0.79-1.106l-0.727-1.148l-0.664-1.186L27.58,60.25l-0.528-1.253l-0.459-1.279l-0.388-1.303  l-0.315-1.323l-0.242-1.337l-0.168-1.349l-0.094-1.356l-0.019-1.359l0.056-1.358l0.131-1.353l0.205-1.344l0.279-1.331l0.352-1.313  l0.424-1.292l0.494-1.266l0.563-1.237l0.631-1.205l0.695-1.167l0.759-1.128l0.821-1.084l0.878-1.037l0.935-0.987l0.987-0.935  l1.037-0.878l1.084-0.821l1.128-0.759l1.167-0.695l1.205-0.631l1.237-0.563l1.266-0.494l1.292-0.424l1.313-0.352l1.331-0.279  l1.344-0.205l1.353-0.131l1.358-0.056l1.359,0.019l1.356,0.094l1.349,0.168l1.337,0.242l1.323,0.315l1.303,0.388l1.279,0.459  l1.253,0.528l1.221,0.597l1.186,0.664l1.148,0.727l1.106,0.79l1.061,0.85l1.013,0.906l0.961,0.962l0.907,1.013l0.849,1.061  l0.79,1.106l0.728,1.148l0.664,1.186l0.596,1.221l0.529,1.253l0.459,1.279l0.388,1.303l0.315,1.323l0.242,1.337l0.168,1.349  l0.094,1.356l0.019,1.359l-0.056,1.358l-0.131,1.353l-0.205,1.344l-0.279,1.331l-0.352,1.313l-0.424,1.292l-0.494,1.266  l-0.564,1.237l-0.63,1.204l-0.696,1.168l-0.759,1.127l-0.82,1.085l-0.878,1.037L67.472,67.472"/><path class="st0" d="M53.33,53.33l0.388-0.439l0.329-0.485l0.266-0.523l0.198-0.551l0.128-0.572l0.055-0.584l-0.018-0.586  l-0.092-0.578l-0.164-0.563l-0.233-0.538l-0.298-0.505l-0.359-0.463l-0.415-0.415l-0.463-0.359l-0.505-0.298l-0.538-0.233  l-0.563-0.164l-0.578-0.092l-0.586-0.018l-0.583,0.055l-0.573,0.128l-0.551,0.198l-0.522,0.266l-0.485,0.329l-0.439,0.388  l-0.388,0.439l-0.329,0.485l-0.266,0.522l-0.198,0.551l-0.128,0.573l-0.055,0.583l0.018,0.586l0.092,0.578l0.164,0.563l0.233,0.538  l0.298,0.505l0.359,0.463l0.415,0.415l0.463,0.359l0.505,0.298l0.538,0.233l0.563,0.164l0.578,0.092l0.586,0.018l0.584-0.055  l0.572-0.128l0.551-0.198l0.523-0.266l0.485-0.329L53.33,53.33 M53.802,53.802l-0.464,0.412L52.83,54.57l-0.545,0.295l-0.576,0.228  l-0.599,0.161l-0.614,0.09l-0.62,0.018l-0.618-0.055l-0.607-0.125l-0.588-0.195l-0.563-0.263l-0.527-0.325l-0.487-0.385  l-0.438-0.438l-0.385-0.486l-0.325-0.528L45.073,52l-0.195-0.589l-0.125-0.607l-0.055-0.618l0.018-0.62l0.09-0.614l0.161-0.599  l0.229-0.576l0.294-0.545l0.356-0.508l0.412-0.464l0.464-0.412l0.508-0.356l0.545-0.294l0.576-0.229l0.599-0.161l0.614-0.09  l0.62-0.018l0.618,0.055l0.607,0.125L52,45.073l0.562,0.263l0.528,0.325l0.486,0.385l0.438,0.438l0.385,0.487l0.325,0.527  l0.263,0.563l0.195,0.588l0.125,0.607l0.055,0.618l-0.018,0.62l-0.09,0.614l-0.161,0.599l-0.228,0.576L54.57,52.83l-0.356,0.508  L53.802,53.802"/><path class="st0" d="M68.179,68.179l0.956-1.009l0.9-1.059l0.841-1.107l0.78-1.15l0.717-1.191l0.651-1.228l0.584-1.262l0.515-1.292  l0.444-1.317l0.372-1.339l0.299-1.357l0.225-1.372l0.15-1.382l0.075-1.388v-1.39l-0.075-1.388l-0.15-1.382l-0.225-1.372  l-0.299-1.358l-0.372-1.339l-0.444-1.317l-0.515-1.291l-0.584-1.262l-0.651-1.228l-0.717-1.191l-0.78-1.151l-0.841-1.106l-0.9-1.06  l-0.956-1.009l-1.009-0.955l-1.059-0.9l-1.107-0.842l-1.15-0.78l-1.191-0.716l-1.228-0.651l-1.262-0.584l-1.292-0.515l-1.317-0.444  l-1.339-0.373l-1.357-0.298l-1.372-0.225l-1.382-0.15l-1.388-0.075h-1.39l-1.388,0.075l-1.382,0.15l-1.372,0.225l-1.358,0.298  l-1.339,0.373l-1.317,0.444l-1.291,0.515l-1.262,0.584l-1.228,0.651l-1.191,0.716l-1.151,0.78l-1.106,0.842l-1.06,0.9l-1.009,0.955  l-0.955,1.009l-0.9,1.06l-0.842,1.106l-0.78,1.151l-0.716,1.191l-0.651,1.228l-0.584,1.262l-0.515,1.291l-0.444,1.317l-0.373,1.339  l-0.298,1.358l-0.225,1.372l-0.15,1.382l-0.075,1.388v1.39l0.075,1.388l0.15,1.382l0.225,1.372l0.298,1.357l0.373,1.339l0.444,1.317  l0.515,1.292l0.584,1.262l0.651,1.228l0.716,1.191l0.78,1.15l0.842,1.107l0.9,1.059l0.955,1.009l1.009,0.956l1.06,0.9l1.106,0.841  l1.151,0.78l1.191,0.717l1.228,0.651l1.262,0.584l1.291,0.515l1.317,0.444l1.339,0.372l1.358,0.299l1.372,0.225l1.382,0.15  l1.388,0.075h1.39l1.388-0.075l1.382-0.15l1.372-0.225l1.357-0.299l1.339-0.372l1.317-0.444l1.292-0.515l1.262-0.584l1.228-0.651  l1.191-0.717l1.15-0.78l1.107-0.841l1.059-0.9L68.179,68.179 M68.887,68.887l-1.03,0.977l-1.081,0.92l-1.128,0.862l-1.173,0.801  l-1.214,0.737l-1.251,0.671l-1.285,0.604l-1.315,0.535l-1.342,0.464l-1.365,0.392l-1.383,0.319l-1.399,0.245l-1.409,0.169  l-1.417,0.095l-1.419,0.019l-1.419-0.056l-1.414-0.133l-1.405-0.207l-1.391-0.281l-1.375-0.355l-1.355-0.428l-1.328-0.499  l-1.301-0.57l-1.268-0.637l-1.233-0.705l-1.194-0.769l-1.151-0.832l-1.105-0.891l-1.055-0.949l-1.004-1.005l-0.949-1.055  l-0.892-1.105l-0.832-1.151l-0.769-1.194l-0.704-1.233l-0.638-1.268l-0.569-1.301l-0.5-1.329l-0.427-1.354l-0.355-1.375  l-0.282-1.392l-0.207-1.405l-0.132-1.414l-0.057-1.418l0.019-1.42l0.095-1.416l0.17-1.41l0.245-1.398l0.318-1.384l0.392-1.365  l0.464-1.342l0.535-1.315l0.604-1.285l0.672-1.251l0.737-1.213l0.8-1.173l0.862-1.128l0.921-1.081l0.976-1.031l1.031-0.976  l1.081-0.921l1.128-0.862l1.173-0.8l1.213-0.737l1.251-0.672l1.285-0.604l1.315-0.535l1.342-0.464l1.365-0.392l1.384-0.318  l1.398-0.245l1.41-0.17l1.416-0.095l1.42-0.019l1.418,0.057l1.414,0.132l1.405,0.207l1.392,0.282l1.375,0.355l1.354,0.427l1.329,0.5  l1.301,0.569l1.268,0.638l1.233,0.704l1.194,0.769l1.151,0.832l1.105,0.892l1.055,0.949l1.005,1.004l0.949,1.055l0.891,1.105  l0.832,1.151l0.769,1.194l0.705,1.233l0.637,1.268l0.57,1.301l0.499,1.328l0.428,1.355l0.355,1.375l0.281,1.391l0.207,1.405  l0.133,1.414l0.056,1.419l-0.019,1.419l-0.095,1.417l-0.169,1.409l-0.245,1.399l-0.319,1.383l-0.392,1.365l-0.464,1.342  l-0.535,1.315l-0.604,1.285l-0.671,1.251l-0.737,1.214l-0.801,1.173l-0.862,1.128l-0.92,1.081L68.887,68.887"/><polyline class="st0" points="27.521,52.697 39.702,52.697 39.956,53.533 40.276,54.346 40.662,55.131 41.111,55.881 41.62,56.591   42.186,57.257 42.803,57.875 43.47,58.441 44.18,58.95 44.93,59.399 45.714,59.784 46.527,60.105 47.364,60.358 47.364,72.54   46.062,72.347 44.775,72.079 43.505,71.737 42.257,71.323 41.034,70.835 39.842,70.278 38.685,69.653 37.566,68.963 36.488,68.207   35.457,67.391 34.475,66.516 33.545,65.586 32.669,64.603 31.854,63.573 31.098,62.495 30.407,61.375 29.782,60.218 29.226,59.026   28.738,57.804 28.324,56.556 27.981,55.286 27.714,53.998 27.521,52.697 "/><polyline class="st0" points="52.697,27.521 53.998,27.714 55.286,27.981 56.556,28.324 57.804,28.738 59.026,29.226 60.218,29.782   61.375,30.407 62.495,31.098 63.573,31.854 64.603,32.669 65.586,33.545 66.516,34.475 67.391,35.457 68.207,36.488 68.963,37.566   69.653,38.685 70.278,39.842 70.835,41.034 71.323,42.257 71.737,43.505 72.079,44.775 72.347,46.062 72.54,47.364 60.358,47.364   60.105,46.527 59.784,45.714 59.399,44.93 58.95,44.18 58.441,43.47 57.875,42.803 57.257,42.186 56.591,41.62 55.881,41.111   55.131,40.662 54.346,40.276 53.533,39.956 52.697,39.702 52.697,27.521 "/><text x="0" y="115" fill="#000000" font-size="5px" font-weight="bold" font-family="'Helvetica Neue', Helvetica, Arial-Unicode, Arial, Sans-serif">Created by Tresnatiq</text><text x="0" y="120" fill="#000000" font-size="5px" font-weight="bold" font-family="'Helvetica Neue', Helvetica, Arial-Unicode, Arial, Sans-serif">from the Noun Project</text></svg>