<svg xmlns="http://www.w3.org/2000/svg" xmlns:xlink="http://www.w3.org/1999/xlink" version="1.1" x="0px" y="0px" viewBox="0 0 100 125" style="enable-background:new 0 0 100 100;" xml:space="preserve"><path d="M91.7,42.1c-4.4-4.4-11.4-4.4-15.8,0l-3.4,3.4l-6.8-6.8l3.4-3.4c5.3-5.3,5.3-10.5,0-15.8c-4.4-4.4-11.4-4.4-15.8,0L50,22.9  h0l-3.4-3.4c-5.3-5.3-10.5-5.3-15.8,0c-4.4,4.4-4.4,11.4,0,15.8l3.4,3.4l0,0l-6.8,6.8v0l-3.4-3.4c-4.4-4.4-11.4-4.4-15.8,0  c-4.4,4.4-4.4,11.4,0,15.8c4.4,4.4,11.4,4.4,15.8,0l3.4-3.4l6.8,6.8l0,0l-3.4,3.4c-5.3,5.3-5.3,10.5,0,15.8c4.4,4.4,11.4,4.4,15.8,0  l3.4-3.4l-0.6-0.6l0,0l0.6,0.6l3.4,3.4c5.3,5.3,10.5,5.3,15.8,0c4.4-4.4,4.4-11.4,0-15.8l-3.4-3.4l6.8-6.8l3.4,3.4  c4.4,4.4,11.4,4.4,15.8,0C96.1,53.5,96.1,46.5,91.7,42.1z M19.6,53.4c-1.9,1.9-4.9,1.9-6.8,0c-1.9-1.9-1.9-4.9,0-6.8  c1.9-1.9,4.9-1.9,6.8,0l3.4,3.4L19.6,53.4z M57.9,24.1c1.9-1.9,4.9-1.9,6.8,0c2.3,2.3,2.3,4.5,0,6.8l-3.4,3.4l-6.8-6.8l0,0  L57.9,24.1z M50,32l6.8,6.8l0,0L50,45.5l-6.8-6.8L50,32z M35.3,24.1c2.3-2.3,4.5-2.3,6.8,0l3.4,3.4l-6.8,6.8l-3.4-3.4  C33.5,29,33.5,25.9,35.3,24.1z M32,50l6.8-6.8l6.8,6.8h0l-6.8,6.8L32,50z M42.1,75.9c-1.9,1.9-4.9,1.9-6.8,0c-2.3-2.3-2.3-4.5,0-6.8  l3.4-3.4l6.8,6.8L42.1,75.9z M50,68l-6.8-6.8l6.8-6.8l6.8,6.8L50,68z M64.7,75.9c-2.3,2.3-4.5,2.3-6.8,0l-3.4-3.4l6.8-6.8l3.4,3.4  C66.5,71,66.5,74.1,64.7,75.9z M61.3,56.8L54.5,50l6.8-6.8L68,50L61.3,56.8z M87.2,53.4c-1.9,1.9-4.9,1.9-6.8,0L77.1,50l3.4-3.4  c1.9-1.9,4.9-1.9,6.8,0C89.1,48.5,89.1,51.5,87.2,53.4z"/><text x="0" y="115" fill="#000000" font-size="5px" font-weight="bold" font-family="'Helvetica Neue', Helvetica, Arial-Unicode, Arial, Sans-serif">Created by Federico Panzano</text><text x="0" y="120" fill="#000000" font-size="5px" font-weight="bold" font-family="'Helvetica Neue', Helvetica, Arial-Unicode, Arial, Sans-serif">from the Noun Project</text></svg>