<svg xmlns="http://www.w3.org/2000/svg" xmlns:xlink="http://www.w3.org/1999/xlink" version="1.1" x="0px" y="0px" viewBox="0 0 100 125" style="enable-background:new 0 0 100 100;" xml:space="preserve"><path d="M75,55H61.7V45H75c11,0,20-8.9,20-20c0-11-9-20-20-20C64,5,55,14,55,25v13.3H45V25c0-11-9-20-20-20C14,5,5,14,5,25  c0,11,9,20,20,20h13.3h0v10H25C14,55,5,64,5,75c0,11,9,20,20,20c11,0,20-8.9,20-20V61.7h10V75c0,11,8.9,20,20,20c11,0,20-8.9,20-20  C95,64,86.1,55,75,55z M61.7,25c0-7.4,6-13.3,13.3-13.3c7.4,0,13.3,6,13.3,13.3c0,7.4-6,13.3-13.3,13.3H61.7V25z M38.3,75  c0,7.4-6,13.3-13.3,13.3c-7.4,0-13.3-6-13.3-13.3c0-7.4,6-13.3,13.3-13.3h13.3V75z M38.3,38.3H25c-7.4,0-13.3-6-13.3-13.3  c0-7.4,6-13.3,13.3-13.3c7.4,0,13.3,6,13.3,13.3V38.3z M55,55H45V45h10V55z M75,88.3c-7.4,0-13.3-6-13.3-13.3V61.7H75  c7.4,0,13.3,6,13.3,13.3C88.3,82.4,82.4,88.3,75,88.3z"/><text x="0" y="115" fill="#000000" font-size="5px" font-weight="bold" font-family="'Helvetica Neue', Helvetica, Arial-Unicode, Arial, Sans-serif">Created by Federico Panzano</text><text x="0" y="120" fill="#000000" font-size="5px" font-weight="bold" font-family="'Helvetica Neue', Helvetica, Arial-Unicode, Arial, Sans-serif">from the Noun Project</text></svg>