<?xml version="1.0" encoding="UTF-8"?>
<svg width="700pt" height="700pt" version="1.1" viewBox="100 100 500 500" xmlns="http://www.w3.org/2000/svg">
 <g>
  <path d="m513.26 315c-19.625 0.078125-38.457-7.7422-52.254-21.699-7.4609-8.4492-18.191-13.289-29.461-13.289-11.273 0-22.004 4.8398-29.465 13.289-13.82 13.902-32.613 21.719-52.219 21.719-19.602 0-38.398-7.8164-52.219-21.719-7.4453-8.4453-18.16-13.285-29.418-13.285-11.258 0-21.973 4.8398-29.418 13.285-13.801 13.918-32.59 21.75-52.195 21.75-19.602 0-38.391-7.832-52.191-21.75-7.4648-8.4219-18.164-13.258-29.418-13.301-6.2539 0-12.031-3.3359-15.156-8.75s-3.125-12.086 0-17.5 8.9023-8.75 15.156-8.75c19.613-0.082031 38.434 7.7461 52.203 21.719 7.4453 8.4414 18.16 13.281 29.418 13.281 11.258 0 21.973-4.8398 29.418-13.281 13.801-13.922 32.59-21.75 52.191-21.75 19.602 0 38.395 7.8281 52.195 21.75 7.4492 8.4453 18.172 13.281 29.434 13.281 11.266 0 21.984-4.8359 29.438-13.281 13.832-13.895 32.629-21.707 52.234-21.707 19.609 0 38.406 7.8125 52.238 21.707 7.4688 8.4531 18.207 13.297 29.488 13.297s22.02-4.8438 29.488-13.297c13.793-13.969 32.625-21.793 52.254-21.719 6.2539 0 12.031 3.3359 15.156 8.75s3.125 12.086 0 17.5-8.9023 8.75-15.156 8.75c-11.273 0.035156-22 4.8711-29.488 13.301-13.797 13.961-32.629 21.781-52.254 21.699z"/>
  <path d="m513.26 227.5c-19.625 0.078125-38.457-7.7422-52.254-21.699-7.4609-8.4492-18.191-13.289-29.461-13.289-11.273 0-22.004 4.8398-29.465 13.289-13.82 13.902-32.613 21.719-52.219 21.719-19.602 0-38.398-7.8164-52.219-21.719-7.4453-8.4453-18.16-13.285-29.418-13.285-11.258 0-21.973 4.8398-29.418 13.285-13.801 13.918-32.59 21.75-52.195 21.75-19.602 0-38.391-7.832-52.191-21.75-7.4648-8.4219-18.164-13.258-29.418-13.301-6.2539 0-12.031-3.3359-15.156-8.75s-3.125-12.086 0-17.5 8.9023-8.75 15.156-8.75c19.613-0.082031 38.434 7.7461 52.203 21.719 7.4453 8.4414 18.16 13.281 29.418 13.281 11.258 0 21.973-4.8398 29.418-13.281 13.801-13.922 32.59-21.75 52.191-21.75 19.602 0 38.395 7.8281 52.195 21.75 7.4492 8.4453 18.172 13.281 29.434 13.281 11.266 0 21.984-4.8359 29.438-13.281 13.832-13.895 32.629-21.707 52.234-21.707 19.609 0 38.406 7.8125 52.238 21.707 7.4688 8.4531 18.207 13.297 29.488 13.297s22.02-4.8438 29.488-13.297c13.793-13.969 32.625-21.793 52.254-21.719 6.2539 0 12.031 3.3359 15.156 8.75s3.125 12.086 0 17.5-8.9023 8.75-15.156 8.75c-11.273 0.035156-22 4.8711-29.488 13.301-13.797 13.961-32.629 21.781-52.254 21.699z"/>
  <path d="m513.26 402.5c-19.625 0.078125-38.457-7.7422-52.254-21.699-7.4609-8.4492-18.191-13.289-29.461-13.289-11.273 0-22.004 4.8398-29.465 13.289-13.82 13.902-32.613 21.719-52.219 21.719-19.602 0-38.398-7.8164-52.219-21.719-7.4453-8.4453-18.16-13.285-29.418-13.285-11.258 0-21.973 4.8398-29.418 13.285-13.801 13.918-32.59 21.75-52.195 21.75-19.602 0-38.391-7.832-52.191-21.75-7.4648-8.4219-18.164-13.258-29.418-13.301-6.2539 0-12.031-3.3359-15.156-8.75s-3.125-12.086 0-17.5 8.9023-8.75 15.156-8.75c19.613-0.082031 38.434 7.7461 52.203 21.719 7.4453 8.4414 18.16 13.281 29.418 13.281 11.258 0 21.973-4.8398 29.418-13.281 13.801-13.922 32.59-21.75 52.191-21.75 19.602 0 38.395 7.8281 52.195 21.75 7.4492 8.4453 18.172 13.281 29.434 13.281 11.266 0 21.984-4.8359 29.438-13.281 13.832-13.895 32.629-21.707 52.234-21.707 19.609 0 38.406 7.8125 52.238 21.707 7.4688 8.4531 18.207 13.297 29.488 13.297s22.02-4.8438 29.488-13.297c13.793-13.969 32.625-21.793 52.254-21.719 6.2539 0 12.031 3.3359 15.156 8.75s3.125 12.086 0 17.5-8.9023 8.75-15.156 8.75c-11.273 0.035156-22 4.8711-29.488 13.301-13.797 13.961-32.629 21.781-52.254 21.699z"/>
 </g>
</svg>
